<svg id="Layer_1" data-name="Layer 1" xmlns="http://www.w3.org/2000/svg" viewBox="0 0 200 143"><defs><style>.cls-1{fill:#fff;}</style></defs><title>wifi</title><path d="M9.25,70.49a133.77,133.77,0,0,1,181.5,0L100,162.26Z" transform="translate(0 -28.5)"/><path class="cls-1" d="M100,41.5a126.48,126.48,0,0,1,81.28,29.33L162.76,89.56l-31,31.34L100,153,68.24,120.9l-31-31.34L18.72,70.83A126.48,126.48,0,0,1,100,41.5m0-13A140.16,140.16,0,0,0,0,70.38L28,98.7,59,130l41,41.46L141,130,172,98.7l28-28.32A140.16,140.16,0,0,0,100,28.5Z" transform="translate(0 -28.5)"/><path d="M37.29,98.85a94.49,94.49,0,0,1,125.42,0L100,162.26Z" transform="translate(0 -28.5)"/><path class="cls-1" d="M100,81.54a87.41,87.41,0,0,1,53.07,17.81L131.76,120.9,100,153,68.24,120.9,46.93,99.35A87.41,87.41,0,0,1,100,81.54m0-13A101,101,0,0,0,28,98.7L59,130l41,41.46L141,130,172,98.7a101,101,0,0,0-72-30.16Z" transform="translate(0 -28.5)"/><path d="M68.42,130.32a51,51,0,0,1,63.16,0L100,162.26Z" transform="translate(0 -28.5)"/><path class="cls-1" d="M100,125.87a44.26,44.26,0,0,1,21.42,5.48L100,153,78.58,131.35A44.26,44.26,0,0,1,100,125.87m0-13A57.5,57.5,0,0,0,59,130l41,41.46L141,130a57.5,57.5,0,0,0-41-17.17Z" transform="translate(0 -28.5)"/></svg>